<svg width="12" height="11" viewBox="0 0 12 11" fill="none" xmlns="http://www.w3.org/2000/svg">
<path d="M11.0021 3.57289L7.95835 3.12914L6.59794 0.370807C6.35419 -0.120859 5.64794 -0.127109 5.4021 0.370807L4.04169 3.12914L0.997937 3.57289C0.452103 3.65205 0.233353 4.32497 0.629187 4.71038L2.83127 6.85621L2.31044 9.88746C2.21669 10.4354 2.79377 10.8458 3.2771 10.5895L6.00002 9.15829L8.72294 10.5895C9.20627 10.8437 9.78335 10.4354 9.6896 9.88746L9.16877 6.85621L11.3709 4.71038C11.7667 4.32497 11.5479 3.65205 11.0021 3.57289ZM8.09585 6.50621L8.5896 9.38954L6.00002 8.02913L3.41044 9.38954L3.90419 6.50621L1.80835 4.46455L4.70419 4.04372L6.00002 1.41872L7.29585 4.04372L10.1917 4.46455L8.09585 6.50621Z" fill="white"/>
</svg>
